<svg xmlns="http://www.w3.org/2000/svg" width="128" height="128" viewBox="0 0 128 128">
  <path d="M2,104.318a2,2,0,0,1-2-2A78.725,78.725,0,0,1,78.637,23.682,49.419,49.419,0,0,1,128,73.045a31.307,31.307,0,0,1-31.272,31.272,20.113,20.113,0,0,1-20.091-20.09,13.2,13.2,0,0,1,13.18-13.181,8.921,8.921,0,0,1,8.911,8.91,2,2,0,0,1-4,0,4.917,4.917,0,0,0-4.911-4.91,9.19,9.19,0,0,0-9.18,9.181,16.109,16.109,0,0,0,16.091,16.09A27.3,27.3,0,0,0,124,73.045,45.415,45.415,0,0,0,78.637,27.682,74.721,74.721,0,0,0,4,102.318,2,2,0,0,1,2,104.318Z" fill="#e52e2e"/>
</svg>
